{"title":"(Dawn.of.Justice).2016.(UE).1080p[)(]DD+-5.1-(FR).mkv","uid":15252019,"size":20008918459,"categoryP":"video","categoryS":"movies","magnet":"?xt=urn:btih:b4f2742258091032b4f5329d0d326efcaabf2c1e&amp;dn=%28Dawn.of.Justice%29.2016.%28UE%29.1080p%5B%29%28%5DDD%2B-5.1-%28FR%29.mkv&amp;tr=udp%3A%2F%2Ftracker.leechers-paradise.org%3A6969&amp;tr=udp%3A%2F%2Fzer0day.ch%3A1337&amp;tr=udp%3A%2F%2Fopen.demonii.com%3A1337&amp;tr=udp%3A%2F%2Ftracker.coppersurfer.tk%3A6969&amp;tr=udp%3A%2F%2Fexodus.desync.com%3A6969","seeders":0,"leechers":1,"uploader":"Tyr3ll","files":1,"time":1468063823,"description":"(Dawn.of.Justice).2016.(UE).1080p[)(]DD+-5.1-(FR).mkv\r\n\r\nSee imdb right here : http://www.imdb.com/title/tt2975590/\r\n\r\nNB: this is the Ultimate edition (version longue de 3 heures)\r\n\r\nGeneral/Final purpose : get a final size smaller than 20 GB.\r\nBy Video Re-encoding to mkv h263 at 14000 kbps on simple pass by Copy and rip by Master dubbing option.\r\n\r\nParticularity :\r\n(UE) Ultimate edition and Dolby Digital Plus 5.1 edition.\r\n\r\nLanguage : French only + Sub = US, FR, ES, PT\r\n\r\nResult : OVERALL acceptable quailty as Normal/Good but just a little bit grainy. \r\n\r\n___________________________________________________________________________\r\n\r\n\r\nGeneral\r\n\r\nComplete name                  : (Dawn.of.Justice).2016.(UE).1080p[)(]DD+-5.1-(FR).mkv\r\n\r\nFormat                         : Matroska\r\nFormat version                 : Version 4 / Version 2\r\nFile size                      : 18.6 GiB\r\nDuration                       : 3h 2mn\r\nOverall bit rate               : 14.6 Mbps\r\nEncoded date                   : UTC 2016-07-09 06:24:52\r\nWriting application            : Lavf57.40.101\r\nWriting library                : Lavf57.40.101 / Lavf57.40.101\r\n\r\nVideo\r\nID                             : 1\r\nFormat                         : H.263\r\nCodec ID                       : V_MS/VFW/FOURCC / H263\r\nDuration                       : 3h 2mn\r\nBit rate                       : 13.6 Mbps\r\nWidth                          : 1 920 pixels\r\nHeight                         : 1 080 pixels\r\nDisplay aspect ratio           : 16:9\r\nFrame rate mode                : Constant\r\nFrame rate                     : 23.976 (24000/1001) fps\r\nBit depth                      : 8 bits\r\nCompression mode               : Lossy\r\nBits/(Pixel*Frame)             : 0.273\r\nStream size                    : 17.3 GiB (93%)\r\nWriting library                : Lavc57.47.100 h263p\r\nLanguage                       : French\r\nDefault                        : Yes\r\nForced                         : No\r\nDURATION                       : 03:02:33.656000000\r\n\r\nAudio\r\nID                             : 2\r\nFormat                         : E-AC-3\r\nFormat/Info                    : Audio Coding 3\r\nFormat settings, Endianness    : Big\r\nCodec ID                       : A_EAC3\r\nDuration                       : 3h 2mn\r\nBit rate mode                  : Constant\r\nBit rate                       : 768 Kbps\r\nChannel(s)                     : 6 channels\r\nChannel positions              : Front: L C R, Side: L R, LFE\r\nSampling rate                  : 48.0 KHz\r\nFrame rate                     : 187.500 fps (256 spf)\r\nBit depth                      : 32 bits\r\nCompression mode               : Lossy\r\nStream size                    : 1 003 MiB (5%)\r\nWriting library                : Lavc57.47.100 eac3\r\nLanguage                       : French\r\nDefault                        : Yes\r\nForced                         : No\r\nDURATION                       : 03:02:33.664000000\r\n\r\nMenu = 16 chapters\r\n\r\nEnjoy and seed, please with me to the others.\r\nTy, have a good film and regards","torrent":{"xt":"urn:btih:b4f2742258091032b4f5329d0d326efcaabf2c1e","amp;dn":"%28Dawn.of.Justice%29.2016.%28UE%29.1080p%5B%29%28%5DDD%2B-5.1-%28FR%29.mkv","amp;tr":["udp%3A%2F%2Ftracker.leechers-paradise.org%3A6969","udp%3A%2F%2Fzer0day.ch%3A1337","udp%3A%2F%2Fopen.demonii.com%3A1337","udp%3A%2F%2Ftracker.coppersurfer.tk%3A6969","udp%3A%2F%2Fexodus.desync.com%3A6969"],"infoHash":"b4f2742258091032b4f5329d0d326efcaabf2c1e","infoHashBuffer":{"type":"Buffer","data":[180,242,116,34,88,9,16,50,180,245,50,157,13,50,110,252,170,191,44,30]},"announce":[],"urlList":[]}}